<svg xmlns="http://www.w3.org/2000/svg" xmlns:xlink="http://www.w3.org/1999/xlink" width="200" zoomAndPan="magnify" viewBox="0 0 150 149.999998" height="200" preserveAspectRatio="xMidYMid meet" version="1.0"><defs><clipPath id="4714834591"><path d="M 69.804688 55.308594 L 107 55.308594 L 107 95 L 69.804688 95 Z M 69.804688 55.308594 " clip-rule="nonzero"/></clipPath><clipPath id="4c1dac7c5a"><path d="M 57.527344 47.644531 L 74 47.644531 L 74 64 L 57.527344 64 Z M 57.527344 47.644531 " clip-rule="nonzero"/></clipPath><clipPath id="fa70fa6204"><path d="M 60 60 L 82.277344 60 L 82.277344 97.144531 L 60 97.144531 Z M 60 60 " clip-rule="nonzero"/></clipPath></defs><path fill="#27d733" d="M 89.378906 87.789062 L 82.28125 89.175781 C 81.953125 89.242188 81.742188 89.558594 81.804688 89.882812 C 81.863281 90.171875 82.113281 90.371094 82.394531 90.371094 C 82.433594 90.371094 82.472656 90.367188 82.511719 90.359375 L 89.613281 88.972656 C 89.9375 88.910156 90.152344 88.59375 90.085938 88.265625 C 90.023438 87.9375 89.707031 87.726562 89.378906 87.789062 Z M 89.378906 87.789062 " fill-opacity="1" fill-rule="nonzero"/><g clip-path="url(#4714834591)"><path fill="#27d733" d="M 106.871094 88.742188 C 106.730469 87.429688 106.035156 86.238281 104.957031 85.46875 L 101.132812 82.742188 C 101.148438 80.09375 100.320312 78.1875 98.664062 77.078125 C 98.625 77.035156 98.578125 77 98.527344 76.972656 L 92.960938 73.894531 L 90.164062 58.207031 C 90.003906 57.320312 89.507812 56.546875 88.769531 56.03125 C 88.03125 55.515625 87.132812 55.320312 86.246094 55.480469 L 73.949219 57.699219 C 72.125 58.03125 70.902344 59.78125 71.230469 61.609375 L 72.867188 70.792969 L 72.074219 70.730469 C 70.988281 70.65625 70.039062 71.480469 69.964844 72.570312 L 69.878906 73.859375 C 69.800781 74.945312 70.625 75.890625 71.710938 75.964844 L 73.816406 76.125 L 73.84375 76.277344 C 73.539062 76.351562 73.257812 76.496094 73.011719 76.707031 C 72.617188 77.054688 72.375 77.535156 72.339844 78.0625 L 72.25 79.355469 C 72.195312 80.183594 72.660156 80.929688 73.367188 81.269531 C 73.199219 81.539062 73.101562 81.847656 73.078125 82.175781 L 72.988281 83.464844 C 72.929688 84.300781 73.402344 85.050781 74.117188 85.386719 C 73.945312 85.660156 73.839844 85.976562 73.820312 86.308594 L 73.730469 87.597656 C 73.65625 88.683594 74.480469 89.632812 75.574219 89.707031 L 76.246094 89.746094 L 76.332031 90.222656 C 76.492188 91.109375 76.984375 91.882812 77.726562 92.398438 C 78.296875 92.796875 78.960938 93.003906 79.644531 93.003906 C 79.84375 93.003906 80.046875 92.984375 80.25 92.949219 L 89.089844 91.351562 C 89.109375 91.355469 89.128906 91.359375 89.152344 91.363281 L 94.382812 92.007812 L 96.46875 93.429688 C 97.648438 94.238281 99.042969 94.664062 100.457031 94.664062 C 100.734375 94.664062 101.007812 94.644531 101.285156 94.613281 C 102.976562 94.414062 104.542969 93.609375 105.691406 92.347656 C 106.582031 91.371094 107.011719 90.058594 106.871094 88.742188 Z M 71.796875 74.765625 C 71.371094 74.734375 71.050781 74.367188 71.078125 73.941406 L 71.167969 72.652344 C 71.199219 72.226562 71.566406 71.90625 71.988281 71.933594 L 73.085938 72.015625 L 73.601562 74.898438 Z M 73.453125 79.4375 L 73.542969 78.144531 C 73.554688 77.941406 73.648438 77.753906 73.804688 77.617188 C 73.960938 77.480469 74.160156 77.414062 74.367188 77.429688 L 76.980469 77.609375 C 77.40625 77.636719 77.730469 78.007812 77.699219 78.433594 L 77.609375 79.722656 C 77.582031 80.148438 77.210938 80.46875 76.789062 80.4375 L 74.171875 80.257812 C 73.746094 80.230469 73.425781 79.859375 73.453125 79.4375 Z M 74.191406 83.546875 L 74.28125 82.257812 C 74.292969 82.050781 74.386719 81.863281 74.542969 81.726562 C 74.699219 81.59375 74.898438 81.527344 75.101562 81.539062 L 77.109375 81.679688 C 77.3125 81.691406 77.5 81.785156 77.636719 81.941406 C 77.773438 82.097656 77.839844 82.296875 77.824219 82.5 L 77.738281 83.789062 C 77.707031 84.214844 77.339844 84.539062 76.914062 84.507812 L 74.910156 84.371094 C 74.484375 84.339844 74.160156 83.972656 74.191406 83.546875 Z M 74.933594 87.679688 L 75.019531 86.390625 C 75.035156 86.183594 75.128906 85.996094 75.285156 85.859375 C 75.425781 85.738281 75.601562 85.671875 75.792969 85.671875 C 75.8125 85.671875 75.832031 85.671875 75.851562 85.671875 L 76.804688 85.726562 C 77.230469 85.757812 77.550781 86.125 77.523438 86.550781 L 77.433594 87.839844 C 77.40625 88.265625 77.035156 88.589844 76.609375 88.558594 C 76.609375 88.558594 76.605469 88.558594 76.605469 88.558594 L 75.648438 88.503906 C 75.226562 88.472656 74.902344 88.105469 74.933594 87.679688 Z M 80.035156 91.761719 C 79.464844 91.863281 78.890625 91.738281 78.414062 91.410156 C 77.9375 91.078125 77.621094 90.582031 77.519531 90.011719 L 77.445312 89.601562 C 78.105469 89.320312 78.585938 88.6875 78.636719 87.921875 L 78.726562 86.632812 C 78.761719 86.101562 78.582031 85.605469 78.265625 85.226562 C 78.648438 84.894531 78.902344 84.417969 78.941406 83.875 L 79.027344 82.582031 C 79.0625 82.058594 78.894531 81.546875 78.546875 81.148438 C 78.484375 81.078125 78.417969 81.011719 78.34375 80.949219 C 78.609375 80.636719 78.785156 80.242188 78.8125 79.804688 L 78.902344 78.515625 C 78.976562 77.425781 78.152344 76.480469 77.066406 76.40625 L 75.066406 76.269531 L 72.414062 61.398438 C 72.207031 60.222656 72.992188 59.097656 74.164062 58.886719 L 74.1875 58.882812 L 74.644531 59.589844 C 75.0625 60.234375 75.828125 60.566406 76.585938 60.433594 L 84.707031 58.976562 C 85.460938 58.839844 86.066406 58.261719 86.230469 57.511719 L 86.417969 56.675781 L 86.460938 56.667969 C 87.03125 56.566406 87.605469 56.691406 88.082031 57.019531 C 88.554688 57.351562 88.875 57.847656 88.976562 58.417969 L 91.652344 73.425781 C 91.324219 73.382812 90.992188 73.382812 90.664062 73.4375 L 85.84375 74.210938 C 85.40625 74.28125 85.039062 74.542969 84.828125 74.933594 C 84.617188 75.320312 84.601562 75.773438 84.78125 76.175781 L 85.078125 76.839844 C 85.609375 78.019531 86.875 78.722656 88.15625 78.554688 L 89.695312 78.351562 C 89.800781 78.339844 89.910156 78.375 89.984375 78.453125 L 93.128906 81.695312 L 94.078125 87.03125 C 94.289062 88.203125 93.503906 89.332031 92.332031 89.542969 Z M 104.800781 91.535156 C 103.847656 92.582031 102.550781 93.25 101.144531 93.417969 C 99.738281 93.582031 98.316406 93.234375 97.148438 92.433594 L 94.941406 90.929688 C 94.863281 90.875 94.769531 90.839844 94.675781 90.828125 L 92.980469 90.621094 C 94.558594 90.113281 95.566406 88.496094 95.265625 86.820312 L 94.5625 82.878906 C 94.703125 82.871094 94.839844 82.816406 94.949219 82.710938 C 95.191406 82.480469 95.195312 82.097656 94.964844 81.859375 L 94.121094 80.992188 C 94.121094 80.992188 94.121094 80.988281 94.121094 80.988281 L 90.847656 77.613281 C 90.511719 77.261719 90.019531 77.09375 89.539062 77.15625 L 88 77.359375 C 87.238281 77.460938 86.492188 77.042969 86.179688 76.34375 L 85.882812 75.683594 C 85.847656 75.605469 85.871094 75.539062 85.890625 75.503906 C 85.90625 75.472656 85.949219 75.414062 86.035156 75.402344 L 90.855469 74.628906 C 91.234375 74.566406 91.621094 74.613281 91.976562 74.75 C 92.082031 74.867188 92.226562 74.945312 92.386719 74.957031 L 97.832031 77.96875 C 97.855469 77.988281 97.878906 78.003906 97.90625 78.019531 C 99.339844 78.933594 100 80.570312 99.921875 83.027344 C 99.917969 83.230469 100.011719 83.421875 100.175781 83.535156 L 104.257812 86.449219 C 105.054688 87.019531 105.570312 87.898438 105.671875 88.871094 C 105.777344 89.84375 105.457031 90.8125 104.800781 91.535156 Z M 104.800781 91.535156 " fill-opacity="1" fill-rule="nonzero"/></g><g clip-path="url(#4c1dac7c5a)"><path fill="#27d733" d="M 72.898438 47.660156 C 72.757812 47.6875 72.648438 47.707031 72.621094 47.710938 C 72.242188 47.785156 71.863281 47.878906 71.488281 47.992188 C 71.117188 48.101562 70.75 48.234375 70.390625 48.378906 C 68.902344 48.976562 67.597656 49.847656 66.464844 50.914062 C 65.65625 51.679688 64.933594 52.542969 64.285156 53.464844 C 64.136719 53.542969 63.945312 53.65625 63.710938 53.785156 C 62.871094 54.246094 61.554688 54.984375 60.21875 55.6875 C 59.574219 56.027344 58.925781 56.363281 58.328125 56.660156 C 57.988281 56.828125 57.691406 57.554688 57.585938 58.128906 C 57.527344 58.441406 57.527344 58.703125 57.5625 58.8125 C 57.617188 58.976562 57.734375 59.03125 57.835938 59.035156 C 58.613281 59.070312 59.355469 58.757812 60.125 58.707031 C 60.789062 58.660156 61.472656 58.757812 62.109375 58.953125 C 64.324219 59.628906 65.652344 61.472656 66.128906 63.667969 C 66.148438 63.753906 66.210938 63.859375 66.382812 63.835938 C 66.421875 63.832031 66.507812 63.800781 66.625 63.742188 C 66.992188 63.554688 67.78125 63.074219 68.117188 62.855469 C 68.195312 62.804688 68.25 62.769531 68.273438 62.75 C 68.40625 62.652344 68.378906 62.523438 68.375 62.503906 C 68.347656 62.355469 68.421875 60.953125 68.953125 59.09375 C 69.210938 58.1875 69.625 57.195312 70.105469 56.136719 C 70.121094 56.109375 70.132812 56.085938 70.144531 56.058594 C 70.871094 55.058594 71.484375 53.980469 71.957031 52.84375 C 72.511719 51.480469 72.871094 50.25 73.0625 49.335938 C 73.207031 48.664062 73.277344 48.171875 73.285156 47.933594 C 73.285156 47.917969 73.289062 47.902344 73.289062 47.890625 C 73.3125 47.890625 72.972656 47.644531 72.898438 47.660156 Z M 60.46875 58.183594 C 59.460938 58.210938 58.542969 58.457031 58.050781 58.511719 C 58.066406 58.230469 58.167969 57.765625 58.324219 57.425781 C 58.394531 57.28125 58.460938 57.15625 58.550781 57.109375 C 59.96875 56.386719 61.671875 55.449219 62.929688 54.703125 C 63.253906 54.511719 63.554688 54.332031 63.808594 54.171875 C 63.722656 54.300781 63.640625 54.433594 63.558594 54.5625 C 63.308594 54.96875 63.066406 55.386719 62.84375 55.8125 C 62.621094 56.238281 62.414062 56.675781 62.234375 57.121094 L 61.898438 58 L 61.792969 58.292969 C 61.792969 58.292969 61.792969 58.296875 61.792969 58.296875 C 61.78125 58.292969 61.769531 58.292969 61.761719 58.289062 C 61.332031 58.191406 60.894531 58.171875 60.46875 58.183594 Z M 63.824219 59.15625 C 63.023438 58.65625 62.46875 58.527344 62.246094 58.484375 C 62.230469 58.476562 62.21875 58.464844 62.207031 58.457031 L 62.34375 58.183594 L 62.601562 57.589844 C 62.945312 57.699219 63.605469 57.96875 64.28125 58.429688 C 64.667969 58.691406 65.054688 59.019531 65.40625 59.394531 C 65.492188 59.488281 65.570312 59.585938 65.660156 59.675781 C 65.671875 59.6875 65.683594 59.699219 65.695312 59.710938 C 65.609375 59.769531 65.527344 59.828125 65.441406 59.890625 C 65.332031 59.96875 65.207031 60.03125 65.117188 60.128906 C 65.097656 60.148438 65.089844 60.167969 65.078125 60.1875 C 64.949219 60.050781 64.824219 59.921875 64.695312 59.804688 C 64.390625 59.53125 64.089844 59.324219 63.824219 59.15625 Z M 68.457031 58.945312 C 67.949219 60.621094 67.886719 61.96875 67.894531 62.433594 C 67.882812 62.441406 67.871094 62.453125 67.855469 62.464844 C 67.550781 62.675781 66.859375 63.132812 66.488281 63.339844 C 66.351562 62.777344 66.136719 62.132812 65.890625 61.566406 C 65.726562 61.1875 65.570312 60.824219 65.371094 60.582031 C 65.417969 60.527344 65.464844 60.464844 65.507812 60.40625 C 65.574219 60.367188 65.636719 60.320312 65.703125 60.28125 C 66.917969 59.539062 67.996094 58.574219 68.953125 57.519531 C 68.75 58.011719 68.59375 58.496094 68.457031 58.945312 Z M 72.257812 50.464844 C 72.054688 51.121094 71.804688 51.863281 71.480469 52.644531 C 70.839844 54.191406 69.933594 55.628906 68.835938 56.898438 C 68 57.871094 67.027344 58.714844 66.003906 59.480469 C 65.992188 59.464844 65.984375 59.449219 65.972656 59.429688 C 65.902344 59.3125 65.808594 59.210938 65.71875 59.109375 C 65.351562 58.699219 64.921875 58.367188 64.5 58.101562 C 63.796875 57.652344 63.117188 57.382812 62.730469 57.289062 C 62.90625 56.871094 63.101562 56.460938 63.316406 56.058594 C 63.535156 55.648438 63.773438 55.242188 64.019531 54.847656 C 64.820312 53.554688 65.753906 52.347656 66.839844 51.308594 C 67.917969 50.269531 69.144531 49.398438 70.5625 48.796875 C 70.910156 48.648438 71.261719 48.515625 71.617188 48.394531 C 71.972656 48.269531 72.335938 48.164062 72.699219 48.074219 C 72.726562 48.070312 72.804688 48.046875 72.898438 48.019531 C 72.882812 48.082031 72.867188 48.152344 72.851562 48.230469 C 72.734375 48.703125 72.558594 49.496094 72.257812 50.464844 Z M 72.257812 50.464844 " fill-opacity="1" fill-rule="evenodd"/></g><path fill="#27d733" d="M 69.382812 51.6875 C 68.867188 51.382812 68.21875 51.476562 67.769531 51.855469 C 67.257812 52.292969 66.988281 53.054688 67.199219 53.699219 C 67.332031 54.105469 67.613281 54.449219 68.023438 54.589844 C 68.332031 54.695312 68.664062 54.664062 68.960938 54.535156 C 69.246094 54.414062 69.496094 54.207031 69.667969 53.96875 C 69.828125 53.746094 69.949219 53.476562 70.003906 53.195312 C 70.121094 52.609375 69.914062 51.996094 69.382812 51.6875 Z M 69.382812 51.6875 " fill-opacity="1" fill-rule="evenodd"/><g clip-path="url(#fa70fa6204)"><path fill="#27d733" d="M 62.988281 60.726562 C 62.980469 60.71875 62.980469 60.714844 62.988281 60.722656 C 62.988281 60.722656 62.988281 60.726562 62.988281 60.726562 Z M 62.988281 60.726562 C 62.992188 60.734375 62.996094 60.742188 63.003906 60.75 C 62.996094 60.707031 63.019531 60.664062 63.0625 60.648438 C 63.109375 60.625 63.167969 60.648438 63.191406 60.699219 C 63.230469 60.714844 63.207031 60.738281 63.21875 60.777344 C 63.226562 60.800781 63.203125 60.832031 63.195312 60.855469 C 62.890625 61.484375 62.632812 62.117188 62.394531 62.765625 C 62.238281 63.191406 62.089844 63.625 61.957031 64.070312 C 61.578125 65.375 61.328125 66.691406 61.179688 68.019531 C 61.035156 69.347656 60.988281 70.691406 61.027344 72.046875 C 61.191406 78.382812 63.179688 84.132812 66.738281 88.507812 C 69.984375 92.496094 74.53125 95.339844 80.203125 96.441406 C 80.660156 96.53125 81.128906 96.59375 81.601562 96.675781 C 81.695312 96.691406 81.796875 96.683594 81.882812 96.726562 C 81.914062 96.742188 81.921875 96.761719 81.945312 96.785156 C 82.019531 96.796875 82.074219 96.863281 82.066406 96.9375 C 82.054688 97.015625 81.988281 97.066406 81.914062 97.058594 C 81.882812 97.074219 81.871094 97.09375 81.835938 97.097656 C 81.742188 97.121094 81.644531 97.085938 81.546875 97.078125 C 81.0625 97.023438 80.589844 96.933594 80.125 96.84375 C 74.347656 95.734375 69.707031 92.847656 66.394531 88.789062 C 62.765625 84.347656 60.734375 78.5 60.558594 72.0625 C 60.523438 70.679688 60.574219 69.316406 60.734375 67.96875 C 60.898438 66.617188 61.175781 65.28125 61.582031 63.957031 C 61.789062 63.277344 62.027344 62.617188 62.320312 61.980469 C 62.515625 61.558594 62.738281 61.148438 62.972656 60.742188 C 62.976562 60.734375 62.984375 60.730469 62.988281 60.726562 Z M 62.988281 60.726562 " fill-opacity="1" fill-rule="evenodd"/></g><path fill="#27d733" d="M 58.839844 66.472656 C 58.859375 66.421875 58.917969 66.394531 58.96875 66.417969 C 59.019531 66.4375 59.042969 66.496094 59.023438 66.546875 C 58.925781 66.804688 58.863281 67.089844 58.8125 67.386719 C 58.703125 68.078125 58.679688 68.828125 58.609375 69.453125 C 58.269531 72.152344 58.371094 74.738281 58.828125 77.257812 C 59.292969 79.789062 60.113281 82.253906 61.25 84.703125 C 61.277344 84.761719 61.253906 84.828125 61.195312 84.855469 C 61.136719 84.882812 61.070312 84.859375 61.042969 84.800781 C 59.871094 82.34375 59.007812 79.863281 58.535156 77.3125 C 58.0625 74.761719 57.980469 72.144531 58.328125 69.417969 C 58.402344 68.878906 58.425781 68.246094 58.519531 67.640625 C 58.585938 67.222656 58.6875 66.820312 58.839844 66.472656 Z M 58.839844 66.472656 " fill-opacity="1" fill-rule="evenodd"/><path fill="#27d733" d="M 63.628906 68.785156 C 63.628906 68.78125 63.632812 68.78125 63.632812 68.78125 C 63.644531 68.78125 63.632812 68.789062 63.621094 68.796875 C 63.625 68.792969 63.625 68.789062 63.625 68.789062 C 63.621094 68.792969 63.617188 68.796875 63.613281 68.804688 C 63.613281 68.800781 63.617188 68.800781 63.621094 68.796875 C 63.621094 68.820312 63.625 68.867188 63.621094 68.910156 C 63.566406 69.277344 63.386719 70.179688 63.378906 70.265625 C 63.34375 70.742188 63.328125 71.222656 63.332031 71.703125 C 63.332031 72.1875 63.355469 72.667969 63.390625 73.144531 C 63.503906 74.660156 63.792969 76.050781 64.222656 77.390625 C 64.527344 78.347656 64.917969 79.273438 65.335938 80.222656 C 65.511719 80.613281 65.683594 81.015625 65.867188 81.414062 C 65.898438 81.476562 65.875 81.554688 65.8125 81.585938 C 65.75 81.613281 65.675781 81.589844 65.644531 81.527344 C 65.433594 81.132812 65.226562 80.746094 65.042969 80.355469 C 64.59375 79.40625 64.230469 78.457031 63.925781 77.488281 C 63.496094 76.121094 63.207031 74.707031 63.101562 73.167969 C 63.066406 72.683594 63.046875 72.195312 63.046875 71.707031 C 63.042969 71.21875 63.0625 70.726562 63.101562 70.246094 C 63.109375 70.15625 63.273438 69.222656 63.378906 68.859375 C 63.402344 68.785156 63.421875 68.738281 63.433594 68.714844 C 63.507812 68.601562 63.597656 68.640625 63.609375 68.664062 C 63.644531 68.695312 63.648438 68.746094 63.628906 68.785156 Z M 63.609375 68.808594 C 63.585938 68.828125 63.554688 68.839844 63.527344 68.832031 C 63.558594 68.847656 63.589844 68.855469 63.609375 68.808594 Z M 63.609375 68.808594 " fill-opacity="1" fill-rule="evenodd"/><path fill="#27d733" d="M 64.128906 89.925781 C 64.105469 89.925781 64.085938 89.917969 64.066406 89.902344 C 64.078125 89.898438 64.089844 89.894531 64.105469 89.890625 C 64.085938 89.875 64.074219 89.867188 64.0625 89.875 C 64.058594 89.878906 64.054688 89.882812 64.050781 89.886719 C 64.046875 89.878906 64.042969 89.871094 64.039062 89.863281 C 64.011719 89.808594 64.023438 89.769531 64.027344 89.761719 C 64.039062 89.714844 64.078125 89.699219 64.117188 89.695312 C 64.132812 89.691406 64.171875 89.695312 64.214844 89.738281 C 64.269531 89.789062 64.429688 90.015625 64.5 90.101562 L 65.027344 90.710938 C 65.285156 91 65.558594 91.28125 65.835938 91.554688 C 66.113281 91.824219 66.398438 92.089844 66.6875 92.351562 C 67.390625 92.972656 68.117188 93.558594 68.859375 94.125 C 69.976562 94.976562 71.128906 95.785156 72.285156 96.585938 C 72.339844 96.621094 72.351562 96.695312 72.316406 96.746094 C 72.28125 96.796875 72.210938 96.808594 72.15625 96.773438 C 70.988281 95.980469 69.824219 95.1875 68.699219 94.339844 C 67.949219 93.773438 67.214844 93.179688 66.511719 92.550781 C 66.21875 92.289062 65.929688 92.019531 65.648438 91.742188 C 65.367188 91.464844 65.097656 91.179688 64.835938 90.882812 L 64.304688 90.253906 C 64.261719 90.191406 64.1875 90.011719 64.128906 89.925781 Z M 64.066406 89.902344 C 64.042969 89.90625 64.03125 89.902344 64.050781 89.886719 C 64.054688 89.890625 64.0625 89.898438 64.066406 89.902344 Z M 64.066406 89.902344 " fill-opacity="1" fill-rule="evenodd"/><path fill="#27d733" d="M 68.683594 87.96875 C 68.683594 87.972656 68.683594 87.972656 68.683594 87.972656 C 68.679688 87.980469 68.6875 87.988281 68.703125 87.996094 C 68.707031 88.003906 68.710938 88.011719 68.710938 88.023438 C 68.710938 88.015625 68.710938 88.007812 68.710938 88 C 68.734375 88.011719 68.765625 88.023438 68.765625 88.023438 L 69.558594 88.730469 C 70.082031 89.238281 70.636719 89.746094 71.222656 90.199219 C 71.613281 90.503906 72.015625 90.785156 72.441406 91.023438 C 72.496094 91.050781 72.515625 91.117188 72.484375 91.171875 C 72.457031 91.222656 72.390625 91.242188 72.335938 91.214844 C 71.789062 90.917969 71.269531 90.558594 70.78125 90.160156 C 70.292969 89.761719 69.835938 89.332031 69.390625 88.902344 L 68.648438 88.1875 C 68.644531 88.183594 68.582031 88.140625 68.558594 88.125 C 68.503906 88.074219 68.515625 88.015625 68.523438 88 C 68.546875 87.949219 68.601562 87.925781 68.652344 87.949219 C 68.664062 87.953125 68.675781 87.960938 68.683594 87.96875 Z M 68.683594 87.96875 C 68.703125 87.949219 68.710938 87.96875 68.710938 88 C 68.707031 88 68.707031 88 68.703125 87.996094 C 68.699219 87.988281 68.691406 87.976562 68.683594 87.96875 Z M 68.683594 87.96875 " fill-opacity="1" fill-rule="evenodd"/></svg>