<svg xmlns="http://www.w3.org/2000/svg" xmlns:xlink="http://www.w3.org/1999/xlink" width="200" zoomAndPan="magnify" viewBox="0 0 150 149.999998" height="200" preserveAspectRatio="xMidYMid meet" version="1.0"><defs><clipPath id="0a2bd557ef"><path d="M 37.667969 25 L 149 25 L 149 143 L 37.667969 143 Z M 37.667969 25 " clip-rule="nonzero"/></clipPath><clipPath id="4c000b42a9"><path d="M 0.90625 1.839844 L 49 1.839844 L 49 51 L 0.90625 51 Z M 0.90625 1.839844 " clip-rule="nonzero"/></clipPath></defs><path fill="#27d733" d="M 96.277344 122.035156 L 75.023438 126.191406 C 74.042969 126.382812 73.40625 127.328125 73.597656 128.308594 C 73.765625 129.167969 74.519531 129.765625 75.367188 129.765625 C 75.480469 129.765625 75.597656 129.753906 75.714844 129.734375 L 96.96875 125.578125 C 97.949219 125.386719 98.585938 124.4375 98.394531 123.460938 C 98.203125 122.480469 97.253906 121.84375 96.277344 122.035156 Z M 96.277344 122.035156 " fill-opacity="1" fill-rule="nonzero"/><g clip-path="url(#0a2bd557ef)"><path fill="#27d733" d="M 148.640625 124.890625 C 148.222656 120.960938 146.136719 117.386719 142.914062 115.089844 L 131.464844 106.917969 C 131.515625 98.992188 129.027344 93.292969 124.066406 89.960938 C 123.949219 89.839844 123.8125 89.738281 123.660156 89.652344 L 106.996094 80.4375 L 98.617188 33.464844 C 98.144531 30.808594 96.664062 28.496094 94.449219 26.953125 C 92.230469 25.414062 89.546875 24.828125 86.894531 25.308594 L 50.074219 31.949219 C 44.609375 32.9375 40.957031 38.183594 41.933594 43.652344 L 46.835938 71.144531 L 44.460938 70.964844 C 41.207031 70.742188 38.375 73.210938 38.148438 76.464844 L 37.882812 80.328125 C 37.660156 83.585938 40.128906 86.417969 43.371094 86.640625 L 49.683594 87.113281 L 49.765625 87.570312 C 48.851562 87.789062 48.003906 88.226562 47.273438 88.859375 C 46.082031 89.898438 45.367188 91.339844 45.257812 92.917969 L 44.992188 96.78125 C 44.820312 99.261719 46.21875 101.496094 48.332031 102.519531 C 47.832031 103.328125 47.53125 104.25 47.464844 105.226562 L 47.199219 109.085938 C 47.027344 111.585938 48.441406 113.832031 50.582031 114.847656 C 50.0625 115.664062 49.753906 116.605469 49.683594 117.597656 L 49.417969 121.460938 C 49.195312 124.71875 51.664062 127.550781 54.941406 127.773438 L 56.957031 127.890625 L 57.210938 129.320312 C 57.683594 131.980469 59.167969 134.292969 61.382812 135.832031 C 63.09375 137.023438 65.082031 137.644531 67.121094 137.644531 C 67.722656 137.644531 68.332031 137.589844 68.9375 137.480469 L 95.40625 132.703125 C 95.464844 132.71875 95.527344 132.730469 95.589844 132.738281 L 111.253906 134.664062 L 117.5 138.925781 C 121.035156 141.339844 125.199219 142.613281 129.441406 142.613281 C 130.265625 142.613281 131.089844 142.566406 131.914062 142.46875 C 136.988281 141.871094 141.675781 139.464844 145.117188 135.683594 C 147.777344 132.757812 149.0625 128.824219 148.640625 124.890625 Z M 43.632812 83.039062 C 42.359375 82.953125 41.398438 81.847656 41.484375 80.574219 L 41.75 76.714844 C 41.835938 75.441406 42.941406 74.476562 44.203125 74.566406 L 47.488281 74.8125 L 49.03125 83.445312 Z M 48.59375 97.027344 L 48.859375 93.164062 C 48.902344 92.550781 49.179688 91.984375 49.644531 91.582031 C 50.109375 91.175781 50.707031 90.976562 51.324219 91.015625 L 59.15625 91.554688 C 60.429688 91.644531 61.390625 92.75 61.304688 94.019531 L 61.039062 97.882812 C 60.949219 99.152344 59.847656 100.121094 58.574219 100.03125 L 50.738281 99.492188 C 49.46875 99.402344 48.503906 98.296875 48.59375 97.027344 Z M 50.800781 109.335938 L 51.066406 105.472656 C 51.109375 104.855469 51.386719 104.292969 51.851562 103.886719 C 52.320312 103.484375 52.914062 103.28125 53.53125 103.324219 L 59.535156 103.738281 C 60.148438 103.78125 60.710938 104.058594 61.117188 104.527344 C 61.523438 104.992188 61.722656 105.585938 61.679688 106.203125 L 61.414062 110.066406 C 61.328125 111.335938 60.226562 112.300781 58.953125 112.210938 L 52.949219 111.796875 C 51.675781 111.710938 50.714844 110.605469 50.800781 109.335938 Z M 53.019531 121.707031 L 53.285156 117.847656 C 53.328125 117.230469 53.605469 116.667969 54.074219 116.261719 C 54.496094 115.894531 55.027344 115.695312 55.597656 115.695312 C 55.65625 115.695312 55.710938 115.695312 55.769531 115.699219 L 58.628906 115.863281 C 59.898438 115.953125 60.863281 117.058594 60.777344 118.328125 L 60.511719 122.191406 C 60.421875 123.460938 59.316406 124.425781 58.046875 124.339844 C 58.039062 124.335938 58.03125 124.335938 58.023438 124.335938 L 55.167969 124.171875 C 53.894531 124.085938 52.933594 122.980469 53.019531 121.707031 Z M 68.296875 133.929688 C 66.589844 134.234375 64.867188 133.859375 63.441406 132.871094 C 62.019531 131.878906 61.070312 130.394531 60.765625 128.6875 L 60.546875 127.46875 C 62.515625 126.613281 63.953125 124.722656 64.109375 122.4375 L 64.375 118.578125 C 64.484375 116.988281 63.953125 115.5 62.996094 114.367188 C 64.140625 113.371094 64.90625 111.941406 65.015625 110.3125 L 65.28125 106.449219 C 65.390625 104.871094 64.878906 103.347656 63.839844 102.15625 C 63.652344 101.941406 63.449219 101.742188 63.238281 101.558594 C 64.035156 100.625 64.546875 99.441406 64.640625 98.128906 L 64.90625 94.269531 C 65.128906 91.011719 62.660156 88.179688 59.402344 87.957031 L 53.425781 87.542969 L 45.484375 43.019531 C 44.859375 39.507812 47.203125 36.136719 50.714844 35.503906 L 50.789062 35.488281 L 52.160156 37.609375 C 53.414062 39.542969 55.703125 40.535156 57.96875 40.128906 L 82.277344 35.769531 C 84.546875 35.363281 86.347656 33.636719 86.851562 31.386719 L 87.410156 28.882812 L 87.535156 28.859375 C 89.238281 28.550781 90.964844 28.925781 92.386719 29.917969 C 93.808594 30.90625 94.761719 32.390625 95.066406 34.097656 L 103.082031 79.035156 C 102.101562 78.902344 101.101562 78.90625 100.121094 79.066406 L 85.683594 81.386719 C 84.378906 81.59375 83.273438 82.382812 82.644531 83.542969 C 82.019531 84.707031 81.96875 86.0625 82.511719 87.269531 L 83.402344 89.25 C 84.984375 92.785156 88.773438 94.894531 92.613281 94.390625 L 97.222656 93.78125 C 97.539062 93.738281 97.859375 93.851562 98.082031 94.078125 L 107.496094 103.796875 L 110.34375 119.769531 C 110.972656 123.28125 108.625 126.652344 105.113281 127.285156 Z M 142.445312 133.253906 C 139.59375 136.390625 135.703125 138.390625 131.492188 138.882812 C 127.28125 139.378906 123.035156 138.335938 119.53125 135.945312 L 112.925781 131.4375 C 112.6875 131.273438 112.414062 131.171875 112.128906 131.136719 L 107.050781 130.511719 C 111.78125 128.992188 114.792969 124.15625 113.898438 119.136719 L 111.792969 107.335938 C 112.214844 107.316406 112.628906 107.148438 112.953125 106.832031 C 113.667969 106.140625 113.6875 104.996094 112.992188 104.28125 L 110.472656 101.683594 C 110.472656 101.679688 110.46875 101.679688 110.46875 101.675781 L 100.671875 91.566406 C 99.660156 90.523438 98.191406 90.011719 96.75 90.203125 L 92.140625 90.8125 C 89.867188 91.113281 87.628906 89.863281 86.691406 87.773438 L 85.804688 85.792969 C 85.695312 85.554688 85.769531 85.355469 85.820312 85.257812 C 85.875 85.160156 86 84.988281 86.257812 84.949219 L 100.691406 82.628906 C 101.824219 82.445312 102.992188 82.582031 104.050781 83 C 104.359375 83.351562 104.800781 83.578125 105.277344 83.609375 L 121.585938 92.628906 C 121.652344 92.6875 121.722656 92.742188 121.796875 92.789062 C 126.09375 95.523438 128.070312 100.425781 127.839844 107.78125 C 127.820312 108.382812 128.105469 108.953125 128.59375 109.304688 L 140.820312 118.027344 C 143.199219 119.726562 144.742188 122.367188 145.054688 125.277344 C 145.363281 128.183594 144.414062 131.09375 142.445312 133.253906 Z M 142.445312 133.253906 " fill-opacity="1" fill-rule="nonzero"/></g><g clip-path="url(#4c000b42a9)"><path fill="#27d733" d="M 46.929688 1.886719 C 46.507812 1.972656 46.183594 2.03125 46.101562 2.046875 C 44.960938 2.269531 43.828125 2.546875 42.710938 2.882812 C 41.597656 3.214844 40.5 3.609375 39.417969 4.039062 C 34.964844 5.828125 31.0625 8.441406 27.671875 11.640625 C 25.246094 13.925781 23.085938 16.511719 21.144531 19.265625 C 20.699219 19.503906 20.121094 19.839844 19.417969 20.226562 C 16.90625 21.613281 12.964844 23.820312 8.96875 25.921875 C 7.035156 26.9375 5.097656 27.953125 3.308594 28.839844 C 2.292969 29.34375 1.40625 31.519531 1.085938 33.238281 C 0.914062 34.164062 0.914062 34.953125 1.015625 35.277344 C 1.171875 35.777344 1.523438 35.929688 1.828125 35.945312 C 4.160156 36.046875 6.382812 35.117188 8.6875 34.960938 C 10.679688 34.824219 12.722656 35.117188 14.628906 35.695312 C 21.257812 37.71875 25.234375 43.242188 26.667969 49.816406 C 26.722656 50.074219 26.90625 50.390625 27.417969 50.324219 C 27.539062 50.308594 27.800781 50.214844 28.148438 50.039062 C 29.25 49.480469 31.609375 48.035156 32.617188 47.382812 C 32.847656 47.234375 33.011719 47.125 33.085938 47.066406 C 33.480469 46.769531 33.398438 46.386719 33.390625 46.335938 C 33.308594 45.886719 33.523438 41.683594 35.117188 36.121094 C 35.894531 33.40625 37.128906 30.441406 38.574219 27.273438 C 38.609375 27.191406 38.648438 27.113281 38.6875 27.03125 C 40.859375 24.042969 42.695312 20.8125 44.117188 17.410156 C 45.777344 13.324219 46.847656 9.640625 47.421875 6.914062 C 47.847656 4.902344 48.058594 3.425781 48.089844 2.714844 C 48.09375 2.664062 48.097656 2.621094 48.097656 2.578125 C 48.167969 2.578125 47.148438 1.84375 46.929688 1.886719 Z M 9.71875 33.402344 C 6.699219 33.480469 3.945312 34.21875 2.472656 34.382812 C 2.527344 33.535156 2.828125 32.148438 3.300781 31.132812 C 3.503906 30.695312 3.703125 30.316406 3.976562 30.175781 C 8.21875 28.011719 13.316406 25.207031 17.078125 22.980469 C 18.058594 22.398438 18.953125 21.863281 19.714844 21.386719 C 19.460938 21.777344 19.214844 22.164062 18.96875 22.558594 C 18.21875 23.777344 17.5 25.023438 16.832031 26.296875 C 16.15625 27.574219 15.539062 28.882812 15 30.21875 L 13.992188 32.851562 L 13.683594 33.722656 C 13.683594 33.726562 13.683594 33.734375 13.679688 33.738281 C 13.648438 33.730469 13.617188 33.722656 13.582031 33.714844 C 12.300781 33.417969 10.984375 33.367188 9.71875 33.402344 Z M 19.757812 36.304688 C 17.371094 34.808594 15.703125 34.429688 15.035156 34.300781 C 14.992188 34.269531 14.953125 34.242188 14.914062 34.214844 L 15.324219 33.394531 L 16.101562 31.617188 C 17.128906 31.949219 19.101562 32.75 21.136719 34.132812 C 22.289062 34.917969 23.441406 35.898438 24.496094 37.027344 C 24.753906 37.300781 24.992188 37.59375 25.257812 37.867188 C 25.289062 37.902344 25.324219 37.933594 25.359375 37.964844 C 25.109375 38.144531 24.859375 38.324219 24.605469 38.503906 C 24.277344 38.738281 23.90625 38.925781 23.632812 39.222656 C 23.578125 39.28125 23.550781 39.339844 23.519531 39.402344 C 23.132812 38.988281 22.757812 38.597656 22.375 38.257812 C 21.453125 37.429688 20.5625 36.808594 19.757812 36.304688 Z M 33.628906 35.683594 C 32.113281 40.699219 31.921875 44.730469 31.953125 46.117188 C 31.914062 46.152344 31.875 46.183594 31.835938 46.214844 C 30.921875 46.847656 28.847656 48.214844 27.734375 48.832031 C 27.332031 47.152344 26.6875 45.21875 25.949219 43.523438 C 25.457031 42.386719 24.992188 41.300781 24.394531 40.574219 C 24.535156 40.414062 24.675781 40.226562 24.804688 40.046875 C 25 39.929688 25.1875 39.796875 25.382812 39.679688 C 29.023438 37.453125 32.246094 34.574219 35.121094 31.40625 C 34.511719 32.882812 34.035156 34.328125 33.628906 35.683594 Z M 45.011719 10.292969 C 44.398438 12.253906 43.65625 14.46875 42.679688 16.8125 C 40.761719 21.445312 38.058594 25.75 34.769531 29.554688 C 32.261719 32.457031 29.355469 34.988281 26.285156 37.28125 C 26.257812 37.230469 26.230469 37.183594 26.199219 37.132812 C 25.984375 36.78125 25.707031 36.472656 25.4375 36.167969 C 24.339844 34.9375 23.042969 33.949219 21.789062 33.144531 C 19.683594 31.800781 17.644531 31.003906 16.492188 30.722656 C 17.011719 29.46875 17.601562 28.242188 18.242188 27.042969 C 18.898438 25.804688 19.609375 24.59375 20.347656 23.410156 C 22.742188 19.539062 25.542969 15.921875 28.785156 12.808594 C 32.015625 9.707031 35.6875 7.09375 39.9375 5.296875 C 40.972656 4.851562 42.027344 4.449219 43.097656 4.085938 C 44.164062 3.722656 45.242188 3.394531 46.339844 3.132812 C 46.410156 3.113281 46.648438 3.050781 46.929688 2.972656 C 46.886719 3.15625 46.839844 3.363281 46.785156 3.597656 C 46.433594 5.015625 45.917969 7.382812 45.011719 10.292969 Z M 45.011719 10.292969 " fill-opacity="1" fill-rule="evenodd"/></g><path fill="#27d733" d="M 36.40625 13.945312 C 34.859375 13.039062 32.917969 13.320312 31.578125 14.457031 C 30.042969 15.757812 29.234375 18.039062 29.867188 19.976562 C 30.261719 21.1875 31.109375 22.214844 32.335938 22.636719 C 33.261719 22.957031 34.25 22.855469 35.140625 22.472656 C 35.992188 22.109375 36.75 21.492188 37.261719 20.773438 C 37.738281 20.117188 38.09375 19.304688 38.261719 18.46875 C 38.613281 16.707031 37.996094 14.875 36.40625 13.945312 Z M 36.40625 13.945312 " fill-opacity="1" fill-rule="evenodd"/><path fill="#27d733" d="M 17.257812 41.011719 C 17.242188 40.988281 17.234375 40.980469 17.253906 41 C 17.257812 41.003906 17.257812 41.007812 17.257812 41.011719 Z M 17.257812 41.011719 C 17.269531 41.03125 17.289062 41.058594 17.300781 41.085938 C 17.285156 40.957031 17.351562 40.828125 17.476562 40.773438 C 17.625 40.707031 17.800781 40.777344 17.867188 40.925781 C 17.980469 40.972656 17.914062 41.046875 17.949219 41.160156 C 17.972656 41.238281 17.902344 41.324219 17.875 41.394531 C 16.972656 43.277344 16.199219 45.175781 15.488281 47.113281 C 15.015625 48.394531 14.5625 49.6875 14.175781 51.015625 C 13.035156 54.925781 12.292969 58.867188 11.847656 62.84375 C 11.40625 66.824219 11.269531 70.84375 11.386719 74.90625 C 11.878906 93.871094 17.828125 111.089844 28.488281 124.191406 C 38.199219 136.125 51.824219 144.640625 68.796875 147.9375 C 70.171875 148.207031 71.574219 148.402344 72.988281 148.636719 C 73.269531 148.683594 73.574219 148.664062 73.828125 148.792969 C 73.921875 148.839844 73.941406 148.898438 74.019531 148.972656 C 74.242188 149 74.402344 149.207031 74.375 149.429688 C 74.347656 149.652344 74.144531 149.8125 73.917969 149.785156 C 73.824219 149.835938 73.792969 149.886719 73.683594 149.910156 C 73.402344 149.96875 73.109375 149.875 72.824219 149.839844 C 71.375 149.683594 69.960938 149.410156 68.5625 149.140625 C 51.269531 145.820312 37.371094 137.175781 27.457031 125.035156 C 16.589844 111.730469 10.507812 94.230469 9.980469 74.945312 C 9.882812 70.816406 10.027344 66.730469 10.511719 62.691406 C 11 58.644531 11.828125 54.644531 13.046875 50.679688 C 13.671875 48.644531 14.378906 46.671875 15.253906 44.769531 C 15.839844 43.503906 16.511719 42.28125 17.210938 41.054688 C 17.222656 41.039062 17.25 41.023438 17.257812 41.011719 Z M 17.257812 41.011719 " fill-opacity="1" fill-rule="evenodd"/><path fill="#27d733" d="M 4.839844 58.210938 C 4.902344 58.058594 5.074219 57.984375 5.226562 58.046875 C 5.375 58.109375 5.449219 58.285156 5.386719 58.433594 C 5.09375 59.207031 4.90625 60.066406 4.761719 60.957031 C 4.429688 63.019531 4.363281 65.265625 4.144531 67.136719 C 3.128906 75.214844 3.433594 82.957031 4.808594 90.507812 C 6.191406 98.078125 8.648438 105.464844 12.058594 112.796875 C 12.140625 112.96875 12.066406 113.175781 11.894531 113.253906 C 11.722656 113.335938 11.515625 113.261719 11.433594 113.089844 C 7.929688 105.726562 5.347656 98.304688 3.929688 90.667969 C 2.515625 83.035156 2.265625 75.199219 3.308594 67.03125 C 3.523438 65.421875 3.597656 63.523438 3.882812 61.71875 C 4.078125 60.464844 4.378906 59.257812 4.839844 58.210938 Z M 4.839844 58.210938 " fill-opacity="1" fill-rule="evenodd"/><path fill="#27d733" d="M 19.171875 65.136719 C 19.175781 65.132812 19.183594 65.128906 19.191406 65.128906 C 19.230469 65.132812 19.191406 65.15625 19.160156 65.175781 C 19.160156 65.160156 19.164062 65.152344 19.167969 65.144531 C 19.15625 65.160156 19.144531 65.179688 19.128906 65.191406 C 19.128906 65.195312 19.128906 65.195312 19.128906 65.195312 C 19.136719 65.1875 19.148438 65.179688 19.160156 65.171875 C 19.148438 65.242188 19.167969 65.382812 19.148438 65.511719 C 18.984375 66.609375 18.449219 69.316406 18.433594 69.570312 C 18.320312 71 18.277344 72.4375 18.285156 73.878906 C 18.292969 75.320312 18.355469 76.761719 18.464844 78.191406 C 18.804688 82.730469 19.671875 86.886719 20.957031 90.90625 C 21.871094 93.769531 23.035156 96.542969 24.289062 99.378906 C 24.808594 100.554688 25.324219 101.75 25.882812 102.953125 C 25.976562 103.136719 25.902344 103.363281 25.714844 103.457031 C 25.527344 103.550781 25.300781 103.472656 25.210938 103.289062 C 24.578125 102.113281 23.960938 100.953125 23.40625 99.78125 C 22.0625 96.941406 20.976562 94.089844 20.066406 91.191406 C 18.777344 87.097656 17.917969 82.871094 17.59375 78.253906 C 17.492188 76.804688 17.433594 75.34375 17.429688 73.882812 C 17.429688 72.417969 17.480469 70.957031 17.601562 69.507812 C 17.625 69.246094 18.113281 66.445312 18.433594 65.355469 C 18.496094 65.144531 18.554688 64.996094 18.59375 64.929688 C 18.8125 64.589844 19.085938 64.707031 19.117188 64.773438 C 19.21875 64.871094 19.238281 65.023438 19.171875 65.136719 Z M 19.121094 65.203125 C 19.050781 65.269531 18.957031 65.296875 18.871094 65.285156 C 18.96875 65.328125 19.058594 65.34375 19.121094 65.203125 Z M 19.121094 65.203125 " fill-opacity="1" fill-rule="evenodd"/><path fill="#27d733" d="M 20.675781 128.429688 C 20.609375 128.425781 20.539062 128.402344 20.488281 128.359375 C 20.519531 128.351562 20.558594 128.34375 20.597656 128.328125 C 20.550781 128.277344 20.507812 128.257812 20.472656 128.285156 C 20.460938 128.292969 20.453125 128.300781 20.441406 128.308594 C 20.425781 128.289062 20.414062 128.265625 20.402344 128.238281 C 20.320312 128.078125 20.363281 127.96875 20.371094 127.9375 C 20.410156 127.800781 20.519531 127.757812 20.636719 127.738281 C 20.679688 127.730469 20.800781 127.742188 20.929688 127.867188 C 21.089844 128.019531 21.570312 128.699219 21.789062 128.957031 L 23.363281 130.785156 C 24.140625 131.652344 24.949219 132.488281 25.78125 133.304688 C 26.617188 134.121094 27.46875 134.914062 28.339844 135.691406 C 30.4375 137.558594 32.617188 139.3125 34.839844 141.007812 C 38.1875 143.558594 41.632812 145.972656 45.097656 148.375 C 45.253906 148.480469 45.292969 148.695312 45.1875 148.851562 C 45.078125 149.003906 44.867188 149.042969 44.710938 148.9375 C 41.214844 146.5625 37.722656 144.191406 34.355469 141.644531 C 32.105469 139.949219 29.917969 138.171875 27.804688 136.285156 C 26.929688 135.503906 26.0625 134.699219 25.222656 133.871094 C 24.382812 133.042969 23.570312 132.183594 22.789062 131.300781 L 21.203125 129.410156 C 21.070312 129.222656 20.851562 128.695312 20.675781 128.429688 Z M 20.488281 128.359375 C 20.417969 128.375 20.386719 128.363281 20.441406 128.308594 C 20.457031 128.328125 20.472656 128.34375 20.488281 128.359375 Z M 20.488281 128.359375 " fill-opacity="1" fill-rule="evenodd"/><path fill="#27d733" d="M 34.316406 122.578125 C 34.316406 122.578125 34.316406 122.578125 34.316406 122.582031 C 34.296875 122.605469 34.324219 122.632812 34.371094 122.65625 C 34.382812 122.679688 34.390625 122.707031 34.394531 122.730469 C 34.394531 122.710938 34.394531 122.6875 34.394531 122.671875 C 34.464844 122.707031 34.550781 122.734375 34.558594 122.738281 L 36.925781 124.855469 C 38.503906 126.371094 40.15625 127.890625 41.914062 129.253906 C 43.078125 130.160156 44.289062 131 45.5625 131.714844 C 45.722656 131.800781 45.78125 132 45.691406 132.160156 C 45.605469 132.316406 45.40625 132.375 45.246094 132.289062 C 43.605469 131.402344 42.054688 130.324219 40.585938 129.128906 C 39.128906 127.945312 37.757812 126.648438 36.433594 125.367188 L 34.203125 123.226562 C 34.191406 123.214844 34.003906 123.09375 33.9375 123.035156 C 33.769531 122.890625 33.8125 122.710938 33.832031 122.664062 C 33.894531 122.515625 34.070312 122.445312 34.222656 122.511719 C 34.257812 122.527344 34.289062 122.550781 34.316406 122.578125 Z M 34.316406 122.578125 C 34.375 122.507812 34.390625 122.578125 34.394531 122.671875 C 34.386719 122.664062 34.378906 122.660156 34.371094 122.65625 C 34.355469 122.628906 34.339844 122.601562 34.316406 122.578125 Z M 34.316406 122.578125 " fill-opacity="1" fill-rule="evenodd"/></svg>