<svg xmlns="http://www.w3.org/2000/svg" xmlns:xlink="http://www.w3.org/1999/xlink" width="200" zoomAndPan="magnify" viewBox="0 0 150 97.5" height="130" preserveAspectRatio="xMidYMid meet" version="1.0"><defs><clipPath id="be2f8a216c"><path d="M 39.84375 9.699219 L 147.359375 9.699219 L 147.359375 80.933594 L 39.84375 80.933594 Z M 39.84375 9.699219 " clip-rule="nonzero"/></clipPath><clipPath id="bd93748f4e"><path d="M 2.640625 24 L 19 24 L 19 80.933594 L 2.640625 80.933594 Z M 2.640625 24 " clip-rule="nonzero"/></clipPath><clipPath id="7537d7661d"><path d="M 30 41 L 34.894531 41 L 34.894531 79 L 30 79 Z M 30 41 " clip-rule="nonzero"/></clipPath></defs><g clip-path="url(#be2f8a216c)"><path fill="#3dacf3" d="M 141.203125 9.878906 L 45.910156 9.878906 C 45.511719 9.878906 45.113281 9.917969 44.71875 9.996094 C 44.328125 10.074219 43.945312 10.191406 43.574219 10.34375 C 43.203125 10.496094 42.851562 10.6875 42.519531 10.910156 C 42.1875 11.132812 41.878906 11.386719 41.59375 11.667969 C 41.308594 11.953125 41.058594 12.261719 40.835938 12.59375 C 40.613281 12.925781 40.421875 13.277344 40.269531 13.648438 C 40.117188 14.019531 40 14.402344 39.921875 14.792969 C 39.84375 15.1875 39.804688 15.585938 39.804688 15.984375 L 39.804688 74.066406 C 39.804688 74.464844 39.84375 74.863281 39.921875 75.257812 C 40 75.648438 40.117188 76.03125 40.269531 76.402344 C 40.421875 76.773438 40.613281 77.125 40.835938 77.457031 C 41.058594 77.789062 41.308594 78.097656 41.59375 78.382812 C 41.878906 78.664062 42.1875 78.917969 42.519531 79.140625 C 42.851562 79.363281 43.203125 79.550781 43.574219 79.707031 C 43.945312 79.859375 44.328125 79.976562 44.71875 80.054688 C 45.113281 80.132812 45.511719 80.171875 45.910156 80.171875 L 141.203125 80.171875 C 141.601562 80.171875 142 80.132812 142.390625 80.054688 C 142.785156 79.976562 143.167969 79.859375 143.539062 79.707031 C 143.90625 79.554688 144.261719 79.363281 144.59375 79.140625 C 144.925781 78.917969 145.234375 78.664062 145.519531 78.382812 C 145.800781 78.097656 146.054688 77.789062 146.277344 77.457031 C 146.5 77.125 146.6875 76.773438 146.84375 76.402344 C 146.996094 76.03125 147.113281 75.648438 147.191406 75.257812 C 147.269531 74.863281 147.308594 74.464844 147.308594 74.066406 L 147.308594 15.984375 C 147.308594 15.585938 147.269531 15.1875 147.191406 14.792969 C 147.113281 14.402344 146.996094 14.019531 146.84375 13.648438 C 146.6875 13.277344 146.5 12.925781 146.277344 12.59375 C 146.054688 12.261719 145.800781 11.953125 145.519531 11.667969 C 145.234375 11.382812 144.925781 11.132812 144.59375 10.910156 C 144.261719 10.6875 143.90625 10.496094 143.539062 10.34375 C 143.167969 10.191406 142.785156 10.074219 142.390625 9.996094 C 142 9.917969 141.601562 9.878906 141.203125 9.878906 Z M 110.453125 45.023438 L 144 15.121094 C 144.09375 15.402344 144.140625 15.6875 144.144531 15.984375 L 144.144531 74.066406 C 144.140625 74.359375 144.09375 74.648438 144 74.929688 Z M 141.199219 13.042969 C 141.308594 13.046875 141.421875 13.058594 141.53125 13.074219 L 95.503906 54.101562 C 95.234375 54.34375 94.933594 54.527344 94.59375 54.65625 C 94.257812 54.785156 93.910156 54.847656 93.546875 54.847656 C 93.1875 54.847656 92.839844 54.785156 92.5 54.65625 C 92.164062 54.527344 91.863281 54.34375 91.59375 54.101562 L 45.578125 13.074219 C 45.6875 13.058594 45.800781 13.046875 45.910156 13.042969 Z M 43.113281 74.929688 C 43.019531 74.648438 42.972656 74.359375 42.96875 74.066406 L 42.96875 15.984375 C 42.972656 15.6875 43.019531 15.402344 43.113281 15.121094 L 76.660156 45.023438 Z M 45.910156 77.011719 C 45.800781 77.003906 45.6875 76.996094 45.578125 76.976562 L 79.035156 47.148438 L 89.496094 56.464844 C 89.773438 56.714844 90.070312 56.933594 90.386719 57.125 C 90.703125 57.320312 91.035156 57.480469 91.382812 57.613281 C 91.730469 57.746094 92.085938 57.847656 92.453125 57.914062 C 92.816406 57.980469 93.183594 58.015625 93.554688 58.015625 C 93.929688 58.015625 94.296875 57.980469 94.660156 57.914062 C 95.027344 57.847656 95.382812 57.746094 95.730469 57.613281 C 96.078125 57.480469 96.410156 57.320312 96.726562 57.125 C 97.042969 56.933594 97.339844 56.714844 97.617188 56.464844 L 108.074219 47.144531 L 141.53125 76.972656 C 141.421875 76.992188 141.3125 77.003906 141.199219 77.007812 Z M 45.910156 77.011719 " fill-opacity="1" fill-rule="nonzero"/></g><g clip-path="url(#bd93748f4e)"><path fill="#41b1f8" d="M 8.164062 59.703125 C 8.167969 63.480469 7.957031 68.871094 7.207031 76.039062 C 6.988281 78.121094 8.5 79.984375 10.578125 80.203125 C 10.714844 80.21875 10.847656 80.226562 10.980469 80.226562 C 12.894531 80.226562 14.539062 78.777344 14.746094 76.828125 C 15.519531 69.414062 15.746094 63.761719 15.746094 59.703125 C 15.746094 54.375 15.359375 51.796875 15.324219 51.589844 C 15.292969 51.382812 15.238281 51.183594 15.175781 50.988281 C 15.4375 49.972656 15.511719 48.867188 15.398438 47.773438 C 15.148438 45.503906 15.199219 43.277344 15.515625 41.140625 C 14.59375 40.394531 13.828125 39.570312 13.214844 38.710938 C 10.898438 35.449219 10.625 31.972656 10.613281 30.191406 C 10.613281 29.464844 10.667969 29.003906 10.675781 28.921875 C 10.835938 27.59375 12.046875 26.644531 13.375 26.808594 C 14.707031 26.96875 15.652344 28.179688 15.492188 29.507812 L 15.492188 29.511719 C 15.488281 29.53125 15.488281 29.574219 15.484375 29.636719 C 15.476562 29.753906 15.464844 29.945312 15.464844 30.191406 C 15.460938 31.105469 15.601562 32.761719 16.285156 34.335938 C 16.480469 34.773438 16.707031 35.203125 16.976562 35.617188 C 17.222656 34.992188 17.488281 34.375 17.777344 33.777344 C 19.128906 30.941406 18.640625 27.488281 16.21875 25.269531 C 13.835938 23.070312 9.4375 23.863281 7.203125 28.003906 C 4.160156 33.714844 2.636719 40.277344 3.035156 47.089844 C 3.214844 50.679688 5.492188 53.707031 8.027344 54.867188 C 8.101562 56 8.164062 57.601562 8.164062 59.703125 Z M 8.164062 59.703125 " fill-opacity="1" fill-rule="nonzero"/></g><g clip-path="url(#7537d7661d)"><path fill="#41b1f8" d="M 32.945312 78.960938 C 33.78125 78.960938 34.460938 78.28125 34.460938 77.445312 L 34.460938 46.5 C 34.460938 43.996094 32.902344 41.863281 30.707031 41 C 30.855469 41.292969 30.953125 41.625 30.96875 41.976562 C 31.015625 42.804688 30.632812 43.558594 30.019531 44.027344 C 30.863281 44.53125 31.425781 45.449219 31.429688 46.5 L 31.429688 77.445312 C 31.429688 78.28125 32.105469 78.960938 32.945312 78.960938 Z M 32.945312 78.960938 " fill-opacity="1" fill-rule="nonzero"/></g><path fill="#41b1f8" d="M 23.070312 44.28125 C 22.792969 44.96875 22.636719 45.714844 22.636719 46.5 C 22.636719 47.335938 23.3125 48.015625 24.152344 48.015625 C 24.988281 48.015625 25.667969 47.335938 25.667969 46.5 C 25.667969 45.75 25.957031 45.070312 26.425781 44.558594 C 25.230469 44.535156 24.113281 44.445312 23.070312 44.28125 Z M 23.070312 44.28125 " fill-opacity="1" fill-rule="nonzero"/><path fill="#41b1f8" d="M 21.835938 11.261719 C 22.269531 11.363281 22.691406 11.507812 23.101562 11.691406 C 23.507812 11.875 23.894531 12.097656 24.257812 12.359375 C 24.621094 12.621094 24.957031 12.914062 25.265625 13.242188 C 25.570312 13.566406 25.84375 13.921875 26.078125 14.300781 C 26.316406 14.683594 26.511719 15.082031 26.671875 15.5 C 26.828125 15.921875 26.945312 16.351562 27.015625 16.792969 C 27.089844 17.234375 27.117188 17.679688 27.105469 18.125 C 27.089844 18.574219 27.03125 19.015625 26.929688 19.453125 C 26.828125 19.886719 26.6875 20.308594 26.5 20.71875 C 26.316406 21.125 26.09375 21.511719 25.832031 21.875 C 25.570312 22.238281 25.277344 22.574219 24.953125 22.882812 C 24.625 23.1875 24.269531 23.460938 23.890625 23.695312 C 23.511719 23.933594 23.109375 24.128906 22.691406 24.289062 C 22.273438 24.445312 21.84375 24.5625 21.402344 24.632812 C 20.957031 24.707031 20.515625 24.734375 20.066406 24.722656 C 19.617188 24.707031 19.175781 24.648438 18.742188 24.546875 C 18.304688 24.445312 17.882812 24.300781 17.476562 24.117188 C 17.066406 23.933594 16.679688 23.710938 16.316406 23.449219 C 15.953125 23.1875 15.617188 22.894531 15.3125 22.570312 C 15.003906 22.242188 14.734375 21.886719 14.496094 21.507812 C 14.261719 21.128906 14.0625 20.726562 13.90625 20.308594 C 13.746094 19.890625 13.632812 19.460938 13.558594 19.019531 C 13.484375 18.574219 13.457031 18.132812 13.472656 17.683594 C 13.484375 17.234375 13.542969 16.792969 13.644531 16.359375 C 13.746094 15.921875 13.890625 15.5 14.074219 15.09375 C 14.257812 14.683594 14.480469 14.296875 14.742188 13.933594 C 15.003906 13.570312 15.296875 13.234375 15.625 12.929688 C 15.949219 12.621094 16.304688 12.351562 16.683594 12.113281 C 17.066406 11.878906 17.464844 11.679688 17.882812 11.523438 C 18.300781 11.363281 18.734375 11.25 19.175781 11.175781 C 19.617188 11.101562 20.0625 11.074219 20.507812 11.089844 C 20.957031 11.101562 21.398438 11.160156 21.835938 11.261719 Z M 21.835938 11.261719 " fill-opacity="1" fill-rule="nonzero"/><path fill="#41b1f8" d="M 27.191406 43.960938 C 27.667969 43.957031 28.152344 43.945312 28.644531 43.917969 C 28.898438 43.90625 29.136719 43.839844 29.351562 43.734375 C 29.984375 43.421875 30.40625 42.753906 30.363281 42.007812 C 30.335938 41.480469 30.085938 41.015625 29.707031 40.703125 C 29.394531 40.441406 28.988281 40.285156 28.550781 40.285156 C 28.519531 40.285156 28.484375 40.285156 28.453125 40.285156 C 27.949219 40.3125 27.449219 40.328125 26.964844 40.328125 C 24.253906 40.324219 21.957031 39.894531 20.132812 39.050781 C 18.683594 38.367188 17.574219 37.46875 16.722656 36.296875 C 16.34375 35.78125 16.011719 35.214844 15.730469 34.578125 C 14.933594 32.746094 14.855469 30.898438 14.859375 30.191406 C 14.859375 29.921875 14.871094 29.71875 14.878906 29.597656 C 14.882812 29.523438 14.886719 29.472656 14.890625 29.433594 C 14.949219 28.953125 14.816406 28.476562 14.515625 28.09375 C 14.21875 27.710938 13.785156 27.46875 13.304688 27.410156 C 13.230469 27.402344 13.15625 27.394531 13.082031 27.394531 C 12.164062 27.394531 11.390625 28.085938 11.28125 28.996094 C 11.265625 29.109375 11.222656 29.53125 11.222656 30.1875 C 11.242188 33.3125 12.078125 36.066406 13.710938 38.359375 C 14.253906 39.121094 14.902344 39.816406 15.625 40.4375 C 16.507812 41.195312 17.507812 41.84375 18.605469 42.351562 C 20 43 21.585938 43.453125 23.335938 43.707031 C 24.476562 43.875 25.6875 43.964844 26.964844 43.964844 C 27.039062 43.964844 27.113281 43.960938 27.191406 43.960938 Z M 27.191406 43.960938 " fill-opacity="1" fill-rule="nonzero"/></svg>